{
  "accessors": [
    {
      "bufferView": 2,
      "componentType": 5126,
      "count": 2982,
      "max": [
        8.865384101867676,
        2.6127915382385254,
        13.337352752685547
      ],
      "min": [
        -1.3096904754638672,
        -6.903975486755371,
        -4.696543216705322
      ],
      "type": "VEC3"
    },
    {
      "bufferView": 2,
      "byteOffset": 35784,
      "componentType": 5126,
      "count": 2982,
      "max": [
        0.9998013377189636,
        0.9972233772277832,
        0.9960574507713318
      ],
      "min": [
        -0.9920917749404907,
        -0.9938875436782837,
        -0.9978027939796448
      ],
      "type": "VEC3"
    },
    {
      "bufferView": 1,
      "componentType": 5126,
      "count": 2982,
      "max": [
        0.9986996054649353,
        0.9986996054649353
      ],
      "min": [
        0.0013003901112824678,
        0.0013003901112824678
      ],
      "type": "VEC2"
    },
    {
      "bufferView": 0,
      "componentType": 5125,
      "count": 3768,
      "type": "SCALAR"
    }
  ],
  "asset": {
    "extras": {
      "author": "Alan Zimmerman (https://sketchfab.com/nenjo)",
      "license": "CC-BY-4.0 (http://creativecommons.org/licenses/by/4.0/)",
      "source": "https://sketchfab.com/3d-models/elm-tree-low-poly-1445aa109a344dc6963a123fd0fe48ac",
      "title": "Elm Tree - Low Poly"
    },
    "generator": "Sketchfab-12.67.0",
    "version": "2.0"
  },
  "bufferViews": [
    {
      "buffer": 0,
      "byteLength": 15072,
      "name": "floatBufferViews",
      "target": 34963
    },
    {
      "buffer": 0,
      "byteLength": 23856,
      "byteOffset": 15072,
      "byteStride": 8,
      "name": "floatBufferViews",
      "target": 34962
    },
    {
      "buffer": 0,
      "byteLength": 71568,
      "byteOffset": 38928,
      "byteStride": 12,
      "name": "floatBufferViews",
      "target": 34962
    }
  ],
  "buffers": [
    {
      "byteLength": 110496,
      "uri": "scene.bin"
    }
  ],
  "images": [
    {
      "uri": "textures/mat.tree-elm_baseColor.jpeg"
    }
  ],
  "materials": [
    {
      "doubleSided": true,
      "name": "mat.tree-elm",
      "pbrMetallicRoughness": {
        "baseColorTexture": {
          "index": 0
        },
        "metallicFactor": 0.0,
        "roughnessFactor": 0.7883003048780488
      }
    }
  ],
  "meshes": [
    {
      "name": "Icosphere.001_mat.tree-elm_0",
      "primitives": [
        {
          "attributes": {
            "NORMAL": 1,
            "POSITION": 0,
            "TEXCOORD_0": 2
          },
          "indices": 3,
          "material": 0,
          "mode": 4
        }
      ]
    }
  ],
  "nodes": [
    {
      "children": [
        1
      ],
      "matrix": [
        1.0,
        0.0,
        0.0,
        0.0,
        0.0,
        2.220446049250313e-16,
        -1.0,
        0.0,
        0.0,
        1.0,
        2.220446049250313e-16,
        0.0,
        0.0,
        0.0,
        0.0,
        1.0
      ],
      "name": "Sketchfab_model"
    },
    {
      "children": [
        2
      ],
      "matrix": [
        1.0,
        0.0,
        0.0,
        0.0,
        0.0,
        0.0,
        1.0,
        0.0,
        0.0,
        -1.0,
        0.0,
        0.0,
        0.0,
        0.0,
        0.0,
        1.0
      ],
      "name": "d5aea589171647178e4002c25086811e.fbx"
    },
    {
      "children": [
        3,
        6,
        9,
        11,
        14
      ],
      "name": "RootNode"
    },
    {
      "children": [
        4
      ],
      "matrix": [
        47.919262309693266,
        87.2714324237919,
        9.351091287828549,
        0.0,
        -77.80988879914715,
        47.16882097754471,
        -41.48158635797148,
        0.0,
        -40.61237101723857,
        12.601595483106728,
        90.50874866972505,
        0.0,
        -25.4249210357666,
        37.9508056640625,
        -5.864227294921875,
        1.0
      ],
      "name": "Sun.001"
    },
    {
      "children": [
        5
      ],
      "matrix": [
        1.0,
        0.0,
        0.0,
        0.0,
        0.0,
        2.220446049250313e-16,
        1.0,
        0.0,
        0.0,
        -1.0,
        2.220446049250313e-16,
        0.0,
        0.0,
        0.0,
        0.0,
        1.0
      ],
      "name": "Object_4"
    },
    {
      "name": "Object_5"
    },
    {
      "children": [
        7
      ],
      "matrix": [
        62.48362709153503,
        -70.46697610546101,
        -33.61844877681789,
        0.0,
        77.28258727153228,
        61.94305589291201,
        13.800652353665276,
        0.0,
        11.099393813332274,
        -34.60436044834919,
        93.16298457508371,
        0.0,
        -25.4249210357666,
        37.9508056640625,
        -5.864227294921875,
        1.0
      ],
      "name": "Sun"
    },
    {
      "children": [
        8
      ],
      "matrix": [
        1.0,
        0.0,
        0.0,
        0.0,
        0.0,
        2.220446049250313e-16,
        1.0,
        0.0,
        0.0,
        -1.0,
        2.220446049250313e-16,
        0.0,
        0.0,
        0.0,
        0.0,
        1.0
      ],
      "name": "Object_7"
    },
    {
      "name": "Object_8"
    },
    {
      "children": [
        10
      ],
      "matrix": [
        100.0,
        0.0,
        0.0,
        0.0,
        -0.0,
        -1.629206793918314e-05,
        -99.99999999999868,
        0.0,
        0.0,
        99.99999999999868,
        -1.629206793918314e-05,
        0.0,
        -318.7740783691406,
        438.338623046875,
        -322.14990234375,
        1.0
      ],
      "name": "Icosphere.001"
    },
    {
      "mesh": 0,
      "name": "Icosphere.001_mat.tree-elm_0"
    },
    {
      "children": [
        12
      ],
      "matrix": [
        -29.08647719990347,
        -5.518906457566863,
        -95.51711910171437,
        0.0,
        56.63930913109449,
        79.46723428563203,
        -21.83912397841966,
        0.0,
        77.11008775993375,
        -60.45246356562044,
        -19.98834696773717,
        0.0,
        407.6245422363281,
        590.38623046875,
        -100.54539489746094,
        1.0
      ],
      "name": "Lamp"
    },
    {
      "children": [
        13
      ],
      "matrix": [
        1.0,
        0.0,
        0.0,
        0.0,
        0.0,
        2.220446049250313e-16,
        1.0,
        0.0,
        0.0,
        -1.0,
        2.220446049250313e-16,
        0.0,
        0.0,
        0.0,
        0.0,
        1.0
      ],
      "name": "Object_12"
    },
    {
      "name": "Object_13"
    },
    {
      "children": [
        15
      ],
      "matrix": [
        -65.48615898796433,
        -44.52453325786803,
        -61.0665941343716,
        0.0,
        -31.737007733719864,
        89.53432833071254,
        -31.24686209010388,
        0.0,
        68.58808439600038,
        -1.0816600839305441,
        -72.76334716290866,
        0.0,
        748.1131591796875,
        534.3665161132813,
        650.7639770507813,
        1.0
      ],
      "name": "Camera"
    },
    {
      "name": "Object_15"
    }
  ],
  "samplers": [
    {
      "magFilter": 9729,
      "minFilter": 9987,
      "wrapS": 10497,
      "wrapT": 10497
    }
  ],
  "scene": 0,
  "scenes": [
    {
      "name": "Sketchfab_Scene",
      "nodes": [
        0
      ]
    }
  ],
  "textures": [
    {
      "sampler": 0,
      "source": 0
    }
  ]
}
